<svg width="10" height="13" viewBox="0 0 10 13" fill="none" xmlns="http://www.w3.org/2000/svg">
<path fill-rule="evenodd" clip-rule="evenodd" d="M4.9998 0.261475C5.49686 0.261475 5.8998 0.664418 5.8998 1.16147V9.12698L8.25105 6.53768C8.59557 6.17938 9.16531 6.16821 9.5236 6.51273C9.8819 6.85724 9.89307 7.42698 9.54855 7.78527L5.64855 11.9853C5.47887 12.1617 5.24462 12.2615 4.9998 12.2615C4.75499 12.2615 4.52074 12.1617 4.35105 11.9853L0.451054 7.78527C0.10654 7.42698 0.117711 6.85724 0.476006 6.51273C0.8343 6.16821 1.40404 6.17938 1.74855 6.53768L4.0998 9.12698L4.0998 1.16147C4.0998 0.664418 4.50275 0.261475 4.9998 0.261475Z" fill="#151B44"/>
</svg>
